<svg width="28" height="28" viewBox="0 0 28 28" fill="none" xmlns="http://www.w3.org/2000/svg">
<g id="vuesax/outline/search-normal">
<g id="search-normal">
<path id="Vector" d="M13.4163 25.3747C6.82467 25.3747 1.45801 20.008 1.45801 13.4163C1.45801 6.82467 6.82467 1.45801 13.4163 1.45801C20.008 1.45801 25.3747 6.82467 25.3747 13.4163C25.3747 20.008 20.008 25.3747 13.4163 25.3747ZM13.4163 3.20801C7.78134 3.20801 3.20801 7.79301 3.20801 13.4163C3.20801 19.0397 7.78134 23.6247 13.4163 23.6247C19.0513 23.6247 23.6247 19.0397 23.6247 13.4163C23.6247 7.79301 19.0513 3.20801 13.4163 3.20801Z" fill="#505052"/>
<path id="Vector_2" d="M25.6664 26.5414C25.4447 26.5414 25.223 26.4597 25.048 26.2847L22.7147 23.9514C22.3764 23.613 22.3764 23.053 22.7147 22.7147C23.053 22.3764 23.613 22.3764 23.9514 22.7147L26.2847 25.048C26.623 25.3864 26.623 25.9464 26.2847 26.2847C26.1097 26.4597 25.888 26.5414 25.6664 26.5414Z" fill="#505052"/>
</g>
</g>
</svg>
