<svg width="56" height="56" viewBox="0 0 56 56" fill="none" xmlns="http://www.w3.org/2000/svg">
<g id="telegram 2" clip-path="url(#clip0_144_1509)">
<g id="telegram">
<g id="Rectangle 2174" opacity="0.35">
<path id="Vector" opacity="0.35" d="M37.3333 0H18.6667C8.35735 0 0 8.35735 0 18.6667V37.3333C0 47.6427 8.35735 56 18.6667 56H37.3333C47.6427 56 56 47.6427 56 37.3333V18.6667C56 8.35735 47.6427 0 37.3333 0Z" fill="white"/>
<path id="Vector_2" opacity="0.35" d="M37.3329 0.777344H18.6662C8.78647 0.777344 0.777344 8.78647 0.777344 18.6662V37.3329C0.777344 47.2127 8.78647 55.2218 18.6662 55.2218H37.3329C47.2127 55.2218 55.2218 47.2127 55.2218 37.3329V18.6662C55.2218 8.78647 47.2127 0.777344 37.3329 0.777344Z" stroke="#F3F3F3"/>
</g>
<g id="Group 3853">
<path id="Ellipse 305" d="M27.9998 45.1109C37.45 45.1109 45.1109 37.45 45.1109 27.9998C45.1109 18.5496 37.45 10.8887 27.9998 10.8887C18.5496 10.8887 10.8887 18.5496 10.8887 27.9998C10.8887 37.45 18.5496 45.1109 27.9998 45.1109Z" fill="#5392C7"/>
<path id="Path 4416" d="M16.3596 26.8247C22.6554 24.0817 26.8554 22.2736 28.9596 21.4004C34.9578 18.9115 36.2038 18.4729 37.0158 18.4573C37.3143 18.4513 37.6071 18.5394 37.8527 18.7093C38.0263 18.8582 38.1374 19.067 38.1638 19.2942C38.2073 19.5751 38.2193 19.86 38.1996 20.1435C37.8745 23.5658 36.4682 31.846 35.7527 35.6711C35.4493 37.2889 34.8536 37.8318 34.2765 37.8847C33.0227 37.9998 32.0707 37.0555 30.8542 36.2591C28.9533 35.0147 27.88 34.2369 26.032 33.022C23.8993 31.622 25.2822 30.8442 26.4987 29.5827C26.8098 29.2529 32.3429 24.2253 32.4487 23.7695C32.4607 23.7022 32.4568 23.6329 32.4374 23.5673C32.4179 23.5017 32.3834 23.4415 32.3367 23.3915C32.2709 23.3499 32.1962 23.3242 32.1186 23.3166C32.0411 23.3091 31.9629 23.3198 31.8902 23.348C31.6994 23.3915 28.663 25.3987 22.7809 29.3695C22.1089 29.8944 21.2901 30.1967 20.4382 30.2344C19.293 30.0959 18.167 29.8293 17.0813 29.4395C15.7296 28.9993 14.6531 28.7675 14.748 28.0209C14.7999 27.631 15.337 27.2322 16.3596 26.8247Z" fill="white"/>
</g>
</g>
</g>
<defs>
<clipPath id="clip0_144_1509">
<rect width="56" height="56" fill="white"/>
</clipPath>
</defs>
</svg>
