<svg width="28" height="28" viewBox="0 0 28 28" fill="none" xmlns="http://www.w3.org/2000/svg">
<g id="vuesax/outline/user">
<g id="user">
<path id="Vector" d="M14.0003 14.8749C10.302 14.8749 7.29199 11.8649 7.29199 8.16659C7.29199 4.46825 10.302 1.45825 14.0003 1.45825C17.6987 1.45825 20.7087 4.46825 20.7087 8.16659C20.7087 11.8649 17.6987 14.8749 14.0003 14.8749ZM14.0003 3.20825C11.2703 3.20825 9.04199 5.43659 9.04199 8.16659C9.04199 10.8966 11.2703 13.1249 14.0003 13.1249C16.7303 13.1249 18.9587 10.8966 18.9587 8.16659C18.9587 5.43659 16.7303 3.20825 14.0003 3.20825Z" fill="#454857"/>
<path id="Vector_2" d="M24.0218 26.5417C23.5435 26.5417 23.1468 26.145 23.1468 25.6667C23.1468 21.6417 19.0402 18.375 14.0002 18.375C8.96018 18.375 4.85352 21.6417 4.85352 25.6667C4.85352 26.145 4.45685 26.5417 3.97852 26.5417C3.50018 26.5417 3.10352 26.145 3.10352 25.6667C3.10352 20.685 7.99184 16.625 14.0002 16.625C20.0085 16.625 24.8968 20.685 24.8968 25.6667C24.8968 26.145 24.5002 26.5417 24.0218 26.5417Z" fill="#454857"/>
</g>
</g>
</svg>
